<?xml version="1.0" encoding="UTF-8"?>
<svg width="10" height="13" viewBox="0 0 10 13" fill="none" xmlns="http://www.w3.org/2000/svg">
  <path d="M3.21185 5.64747C3.36275 5.35563 3.78011 5.35563 3.931 5.64747L4.89189 7.50589C4.93039 7.58036 4.99107 7.64104 5.06557 7.67955L6.92396 8.64044C7.21582 8.79134 7.21582 9.2087 6.92396 9.35959L5.06557 10.3205C4.99107 10.359 4.93039 10.4197 4.89189 10.4942L3.931 12.3526C3.78011 12.6444 3.36275 12.6444 3.21185 12.3526L2.25096 10.4942C2.21245 10.4197 2.15177 10.359 2.0773 10.3205L0.21888 9.35959C-0.0729599 9.2087 -0.0729599 8.79134 0.21888 8.64044L2.0773 7.67955C2.15177 7.64104 2.21245 7.58036 2.25096 7.50589L3.21185 5.64747Z" fill="#947EFB"/>
  <path d="M7.2483 2.72463C7.35392 2.52034 7.64608 2.52034 7.7517 2.72463L8.42433 4.02552C8.45128 4.07765 8.49375 4.12013 8.5459 4.14708L9.84678 4.81971C10.0511 4.92533 10.0511 5.21749 9.84678 5.32311L8.5459 5.99574C8.49375 6.02269 8.45128 6.06516 8.42433 6.11731L7.7517 7.41819C7.64608 7.62249 7.35392 7.62249 7.2483 7.41819L6.57567 6.11731C6.54872 6.06516 6.50624 6.02269 6.45411 5.99574L5.15322 5.32311C4.94893 5.21749 4.94893 4.92533 5.15322 4.81971L6.45411 4.14708C6.50624 4.12013 6.54872 4.07765 6.57567 4.02552L7.2483 2.72463Z" fill="#947EFB"/>
  <path d="M3.85752 0.545325C3.938 0.389677 4.16059 0.389677 4.24106 0.545325L4.75354 1.53648C4.77407 1.5762 4.80644 1.60856 4.84617 1.6291L5.83731 2.14158C5.99297 2.22205 5.99297 2.44465 5.83731 2.52512L4.84617 3.0376C4.80644 3.05813 4.77407 3.09049 4.75354 3.13023L4.24106 4.12137C4.16059 4.27703 3.938 4.27703 3.85752 4.12137L3.34504 3.13023C3.3245 3.09049 3.29214 3.05813 3.25242 3.0376L2.26127 2.52512C2.10562 2.44465 2.10562 2.22205 2.26127 2.14158L3.25242 1.6291C3.29214 1.60856 3.3245 1.5762 3.34504 1.53648L3.85752 0.545325Z" fill="#947EFB"/>
</svg> 